<?xml version="1.0" encoding="UTF-8"?>
<!DOCTYPE svg  PUBLIC '-//W3C//DTD SVG 20010904//EN'  'http://www.w3.org/TR/2001/REC-SVG-20010904/DTD/svg10.dtd'>
<svg width="220px" height="152px" version="1.0" viewBox="0 0 290 152" xmlns="http://www.w3.org/2000/svg">
<g transform="translate(0 152) scale(.1 -.1)">
<path d="m1272 1130c-23-10-71-40-106-65-116-82-303-155-504-195-108-22-311-29-404-15-59 9-61-2-11-45 97-86 146-91 882-90 846 0 1247 11 1379 36 91 17 178 58 206 96 11 15 17 30 15 33-3 3-32 0-65-6-36-7-119-9-214-6-130 4-174 10-271 36-153 40-288 95-368 149-143 98-187 109-280 70l-52-21-52 21c-64 27-99 27-155 2z"/>
<path d="m2549 558c-8-7-20-25-27-40-9-23-9-28 2-28 13 0 56 57 56 74 0 10-15 7-31-6z"/>
<path d="m1714 552c-7-4-14-18-15-32-3-20-11-26-43-31-75-12-115-99-62-134 18-12 30-14 43-7 10 6 30 8 45 5 29-6 27-10 53 109 19 89 13 112-21 90zm-34-111c0-26-34-66-48-57-17 10-15 36 5 58 21 23 43 23 43-1z"/>
<path d="m1950 468c-22-88-22-92-5-105 55-39 145 10 145 80 0 42-21 61-58 54-27-5-28-4-24 29 4 29 1 34-16 34s-23-14-42-92zm90-31c0-27-33-62-49-52-15 9-14 27 5 53 20 29 44 28 44-1z"/>
<path d="m2445 548c-2-7-8-37-13-65-8-48-7-53 9-53 13 0 22 15 33 54 9 30 16 59 16 65 0 15-40 14-45-1z"/>
<path d="m642 463c-25-107-19-123 41-123 46 0 64 10 91 50 21 33 20 56-4 80-15 15-27 19-46 14-24-6-26-5-22 27 2 28-1 35-18 37-20 3-24-6-42-85zm93-23c11-17-19-65-40-65-16 0-19 6-17 25 6 42 41 67 57 40z"/>
<path d="m401 511c-26-36-27-51-3-51 13 0 24 13 35 40 12 33 13 40 2 40-8 0-23-13-34-29z"/>
<path d="m466 458c-62-115-63-118-34-118 17 0 29 8 36 25 9 19 19 25 42 25 25 0 30-4 30-25 0-20 5-25 26-25h26l-7 71c-11 106-17 124-47 127-24 3-31-6-72-80zm67-30c-4-8-33-11-33-4 0 3 5 17 11 33l12 28 7-25c4-14 5-28 3-32z"/>
<path d="m1245 528c-10-29-35-151-35-169 0-33 34-18 46 21 16 48 31 48 50 1 11-27 22-41 34-41 29 0 30 12 9 59-25 57-25 61 16 96 40 35 43 45 13 45-12 0-40-17-61-37l-39-38 7 38c7 33 5 37-14 37-12 0-24-6-26-12z"/>
<path d="m2305 495c-50-18-75-48-75-91 0-41 30-62 64-46 13 5 34 8 47 5 24-4 26-1 38 62 6 37 11 69 9 70-14 12-50 12-83 0zm35-30c0-21-32-75-44-75-21 0-21 38 1 62 15 17 43 25 43 13z"/>
<path d="m1815 482c-55-26-84-93-52-120 6-6 38-10 69-10l56 1 12 64c7 35 11 66 9 68-15 14-60 12-94-3zm45-40c0-21-27-62-41-62-18 0-21 30-5 55 19 29 46 33 46 7z"/>
<path d="m2136 488c-10-33-26-109-26-123 0-24 44-15 48 10 7 42 24 73 48 83 13 7 24 18 24 27 0 17-26 20-36 4-4-8-9-8-17 0-15 15-37 14-41-1z"/>
<path d="m984 476c-39-17-64-52-64-87 0-38 17-47 83-47 65 1 67 4 70 94 2 48 1 49-28 51-16 2-44-4-61-11zm46-35c0-28-21-61-40-61-25 0-26 26-3 52 17 19 43 24 43 9z"/>
<path d="m1443 478c-31-15-57-69-49-101 7-31 48-46 71-27 12 10 18 10 30 0 21-18 32-5 44 51 18 85 17 89-31 88-24 0-53-5-65-11zm52-45c-8-34-23-53-41-53-21 0-17 37 6 60 29 29 44 26 35-7z"/>
<path d="m825 467c-8-27-25-107-25-116 0-6 11-11 24-11 19 0 25 7 32 42 7 32 16 46 37 56 42 20 34 39-19 40-26 0-47-5-49-11z"/>
<path d="m1103 418c2-8 20-13 42-13s40 5 43 13c2 8-10 12-43 12s-45-4-42-12z"/>
<path d="m2410 395c-6-8-9-19-5-25 10-16 42-12 49 6 12 32-21 47-44 19z"/>
</g>
</svg>
