<?xml version="1.0" encoding="UTF-8"?>
<!DOCTYPE svg  PUBLIC '-//W3C//DTD SVG 20010904//EN'  'http://www.w3.org/TR/2001/REC-SVG-20010904/DTD/svg10.dtd'>
<svg width="220pt" height="172pt" version="1.0" viewBox="0 0 297 172" xmlns="http://www.w3.org/2000/svg">
<g transform="translate(0 172) scale(.1 -.1)">
<path d="m1139 1411c-123-23-219-58-352-128-182-95-420-324-517-496-33-59-82-188-75-196 9-8 86 36 155 89 131 99 334 236 422 283 163 88 250 108 493 112 139 3 178 7 214 22 43 19 45 19 82 0 31-15 67-20 186-23 182-4 298-16 341-34 12-6 32-14 45-19 35-14 110-51 132-64 45-28 163-106 201-133 23-16 63-44 90-63s69-51 94-70c69-55 137-101 150-101 21 0 1 80-44 175-95 202-317 419-561 550-71 38-206 80-303 96-95 15-206 4-306-31l-56-19-75 24c-84 28-238 40-316 26z"/>
<path d="m1531 538-23-102 22-18c59-48 160 15 160 99 0 32-35 57-69 50-29-6-29-6-24 33 5 37 4 40-19 40s-26-6-47-102zm97-32c5-22-24-66-43-66-20 0-19 39 1 68 18 26 37 25 42-2z"/>
<path d="m826 593c-14-20-23-40-20-44 4-7 44-4 48 3 1 2 9 20 19 41 16 36 16 37-3 37-11 0-30-16-44-37z"/>
<path d="m954 616c-65-28-96-120-59-173 32-46 145-56 145-13 0 16-7 20-38 20-48 0-62 14-62 61 0 49 38 82 90 77 30-3 35 0 38 20s-1 22-40 22c-24-1-57-7-74-14z"/>
<path d="m2160 589c-22-43-21-55 5-46 14 6 55 64 55 80 0 4-9 7-20 7-13 0-27-14-40-41z"/>
<path d="m1121 556c-54-30-67-102-25-135 32-25 55-26 94-6 35 18 51 45 52 87 2 57-64 86-121 54zm67-52c2-11-6-31-16-44-17-21-22-23-36-11-17 14-14 43 7 69 15 19 41 10 45-14z"/>
<path d="m1274 493c3-42 10-81 15-86 17-17 48 4 67 46l19 42 5-45c4-36 9-46 26-48 18-3 29 11 63 72 47 86 50 99 19 94-16-2-30-17-45-48l-21-45-4 45c-2 36-7 46-24 48-15 2-26-8-45-45l-24-48-3 48c-3 43-5 47-29 47h-26l7-77z"/>
<path d="m1763 560c-54-22-75-108-34-142 36-29 78-23 117 16 74 74 14 165-83 126zm57-64c0-37-21-62-46-52-13 5-15 14-10 38 11 56 56 68 56 14z"/>
<path d="m1907 563c-3-5 1-40 9-78l15-70-26-22c-25-22-32-47-17-57 21-13 71 37 120 119 58 99 63 118 30 113-16-2-30-17-45-48-22-47-29-44-35 15-2 22-9 31-25 33-11 2-23-1-26-5z"/>
</g>
</svg>
