<?xml version="1.0" encoding="UTF-8"?>
<!DOCTYPE svg  PUBLIC '-//W3C//DTD SVG 20010904//EN'  'http://www.w3.org/TR/2001/REC-SVG-20010904/DTD/svg10.dtd'>
<svg width="292pt" height="192pt" version="1.0" viewBox="0 0 292 192" xmlns="http://www.w3.org/2000/svg">
<g transform="translate(0 192) scale(.1 -.1)">
<path d="m950 1431c-172-38-294-104-394-212-82-89-121-173-121-264v-69l45-9c33-6 696-2 980 6 14 0 205-3 425-7 398-8 564-1 588 23 7 7 12 38 11 70-1 47-9 76-42 143-100 207-345 338-632 338-118 0-180-14-271-62l-75-40-50 30c-82 50-138 65-264 68-86 3-137-1-200-15z"/>
<path d="m1580 700c-12-8-48-152-49-198-1-19 4-23 21-20 19 3 25 16 45 98 12 52 22 100 23 106 0 16-24 24-40 14z"/>
<path d="m2101 613-22-98 22-18c12-10 29-15 36-12 8 3 24 5 35 5 33 0 78 53 78 93 0 41-20 60-61 59-29-1-29 1-23 34 6 31 4 34-18 34-23 0-26-7-47-97zm99-31c0-24-28-62-46-62-17 0-19 51-2 68 18 18 48 15 48-6z"/>
<path d="m2616 703c-11-11-37-75-33-80 9-9 34 10 55 42 12 19 22 37 22 40 0 8-36 6-44-2z"/>
<path d="m296 669c-32-37-34-62-5-57 24 4 67 88 44 88-7 0-25-14-39-31z"/>
<path d="m374 685c-15-37-41-191-34-198 4-5 16-7 26-5 13 2 22 23 35 83 24 106 23 122-2 128-12 3-22 0-25-8z"/>
<path d="m751 611c-27-116-27-133 1-129 19 3 25 15 39 78 33 144 33 140 5 140-22 0-26-7-45-89z"/>
<path d="m857 693c-12-12-7-31 10-37 19-8 48 17 39 33-8 12-39 15-49 4z"/>
<path d="m1409 693c-24-4-27-11-48-101-11-53-21-100-21-104 0-5 11-8 24-8 19 0 26 7 33 37 8 34 12 38 51 45 69 12 106 75 65 110-20 17-65 26-104 21zm61-48c10-12 10-18 0-30-20-24-50-19-50 8 0 39 26 50 50 22z"/>
<path d="m490 672c-27-8-61-54-50-67 6-7 7-32 4-60-8-51 2-65 44-65 15 0 22 6 22 19 0 11-5 21-11 23-7 2-8 17-4 41 5 27 12 37 26 37 12 0 19 7 19 20 0 12-7 20-16 20-10 0-14 6-11 15 7 17-2 24-23 17z"/>
<path d="m2334 640c-56-23-82-101-45-134 26-24 104-19 109 7 3 14-2 18-20 17-40-4-58 0-58 10 0 6 12 10 28 10 73 0 101 79 32 94-14 3-35 1-46-4zm36-39c0-10-30-24-37-17-3 3-2 9 2 15 8 13 35 15 35 2z"/>
<path d="m2472 641c-10-6-42-121-42-148 0-2 11-3 24-3 20 0 25 7 35 44 7 30 21 51 41 66 31 22 40 50 17 50-7 0-18-5-25-12-8-8-15-8-24 0-8 6-19 7-26 3z"/>
<path d="m594 621c-17-10-37-33-44-51-12-28-11-37 1-59 17-30 53-39 76-19 13 10 17 10 20 1 3-7 13-13 22-13 14 0 21 16 33 73 12 53 13 74 4 79-21 14-81 8-112-11zm66-26c0-21-32-75-44-75-21 0-21 38 1 62 15 17 43 25 43 13z"/>
<path d="m845 628c-3-7-11-41-19-76-13-55-13-64 0-69 27-10 41 6 52 63 17 81 16 94-8 94-11 0-23-6-25-12z"/>
<path d="m980 633c-38-14-70-57-70-94 0-20 6-41 13-47 6-5 39-9 72-9l60 2 6 52c4 29 10 60 13 70 4 9 1 20-6 25-14 9-65 9-88 1zm35-60c-8-34-23-53-41-53-19 0-18 30 2 58 23 33 48 29 39-5z"/>
<path d="m1123 628c-9-11-33-115-33-140 0-4 11-8 24-8 20 0 25 6 31 40 8 47 39 90 54 75 7-7 7-24 1-50-14-59-12-65 14-65 21 0 26 7 35 50 14 65 14 83-1 98s-54 16-63 2c-4-7-12-7-25 0-24 13-26 13-37-2z"/>
<path d="m1647 633c-3-5-10-34-17-65-11-46-11-60 0-73 15-18 51-20 69-2 11 10 14 10 18 0 9-25 42-14 49 15 3 15 10 43 15 62 15 57 12 72-13 68-17-2-25-14-35-47-26-90-59-97-49-11 6 56 6 60-13 60-11 0-22-3-24-7z"/>
<path d="m1815 567c-10-46-13-73-6-80 16-16 38-1 45 30 12 52 28 83 43 83 13 0 14-10 9-54-6-45-4-54 10-60 21-8 30 5 39 53 8 42 21 61 42 61 16 0 15-13-3-84-5-23-3-26 19-26 23 0 27 6 37 53 7 29 11 62 9 72-5 23-48 32-78 16-12-7-22-7-26-2-3 6-32 9-65 9l-59-1-16-70z"/>
</g>
</svg>