<?xml version="1.0" encoding="UTF-8"?>
<!DOCTYPE svg  PUBLIC '-//W3C//DTD SVG 20010904//EN'  'http://www.w3.org/TR/2001/REC-SVG-20010904/DTD/svg10.dtd'>
<svg width="220px" height="152px" viewBox="0 0 284 170" version="1.0" xmlns="http://www.w3.org/2000/svg">
<g fill="#a9b8b3" transform="translate(0 170) scale(.1 -.1)">
<path d="m1626 1333c-3-4-19-8-34-10-72-7-77-9-74-24 2-12-5-16-23-14-14 2-23 0-20-5 6-10-22-40-37-40-6 0-3 10 8 23 10 12 12 16 4 10-16-15-34-17-26-5 3 5-1 9-9 9-10 0-10-6 3-26 16-25 16-26-3-11-11 9-16 10-11 3 4-7 3-13-3-13-5 0-12 4-15 9s-20 7-37 5c-27-3-30-2-19 11 7 8 16 13 19 10 4-2 8 3 8 11 0 10-4 11-11 4-19-19-29-10-11 10 10 11 14 20 9 21-5 0-17 2-27 4-9 2-15-1-11-6 3-5 10-6 16-3 6 4 9 1 6-7s-13-14-24-14c-21 0-56 24-49 35 2 4-2 7-10 7s-12-4-9-9c8-13-10-10-25 5-9 8-12 8-7 0 3-6 0-13-6-16-7-2-9-8-5-13s12-2 17 6c8 12 10 12 10 1s3-11 17 0c14 12 16 12 11-1-7-23-128-22-128 0 0 5 9 8 20 7s20-5 20-9c0-14 18-9 23 7 4 8 1 17-5 21-7 4-8 3-4-4s3-12-3-12c-5 0-12 4-15 8-10 16-51 6-48-12 4-21-7-21-24 2-12 16-12 16-11-2 1-10-4-21-12-24-9-3-11 0-6 9 6 11 5 12-6 2-20-19-33-16-18 5 12 15 12 15-7-1-12-10-27-17-35-15-7 2-13-6-14-16 0-11-6-21-14-24-9-3-11 0-6 9 5 8 4 10 0 6-13-11-15-38-3-31 6 4 14 1 18-7 10-15 4-29-11-29-6 0-8 4-5 8 2 4-4 8-14 9-11 1-22-2-25-8-4-5 2-6 12-2 17 6 17 6 0-14-29-33-96-23-68 11 8 9 7 13-3 13-9 0-13-9-11-24 1-15-2-22-9-20-7 3-23-4-37-14-13-10-18-19-11-19s10-5 7-11c-4-6-9-8-12-5-10 10-44-15-41-31 2-9-3-18-11-21-9-3-11 0-6 8s4 11-2 7-9-18-8-32c3-25-8-34-20-15-9 15-28 12-22-4 9-22-5-28-18-9-11 15-12 14-10-9 2-15-3-29-10-32-9-3-12 2-10 15 2 11 0 17-6 14-5-4-7-11-4-16 4-5 2-9-4-9-5 0-12 4-15 9-3 4-18 6-33 4-16-2-33-5-40-5-7-1-10-5-7-9 2-5 12-5 22-2 13 5 12 1-6-19-16-18-18-25-8-25 8 0 13 3 11 7-7 11 33 43 44 35 11-6 8-52-3-63-10-10 15-31 30-25 8 3 14 1 14-5 0-21-29-20-49 2-12 12-19 25-17 27 3 3-6 6-19 7-22 2-24-2-21-28 3-29-7-40-19-20-3 5-12 7-19 4-8-3-12 2-11 13 1 25 15 44 25 38 5-3 7 4 5 15s1 20 7 20c7 0 7 4-1 13-15 18-57 14-53-5 1-9-5-14-16-13-23 1-44 14-38 24 3 4-2 8-10 8-10 0-11-4-4-11 19-19 10-29-10-11-11 10-17 22-13 28s1 7-6 2c-9-5-7-13 8-29 12-12 18-26 14-29-9-10-25-9-19 2 3 4-3 16-14 26s-16 24-13 33c4 10 3 14-1 11-10-9-16-50-7-44 12 7 29-17 26-37-2-10 5-20 16-23 11-4 17-10 15-14-3-4 1-8 9-8s12 4 9 9c-8 13 10 9 25-4 10-11 12-10 9 1-2 7 2 15 9 18s10-5 9-21c-2-14 4-32 12-38 13-10 14-10 8 0-4 6-3 12 3 12 5 0 15-8 20-17 9-15 12-16 20-4 5 8 20 16 32 18 19 3 21 1 11-9-6-6-12-15-12-19 0-9 53-5 70 6 23 15 43 12 66-8 21-18 21-18 20 9 0 15 4 29 11 31 7 3 10-5 9-22-2-14 0-27 4-30 5-3 6 75 1 119-1 5-9 2-20-8-15-14-20-14-29-3-12 14-7 27 10 27 5 0 6-5 2-11-3-6 6-3 22 7 15 11 25 14 21 8-4-7-1-17 7-23 7-6 12-26 11-44-2-22 2-34 10-34s12 10 10 24c-1 14 2 22 9 20 6-2 10-19 9-38 0-19 1-29 3-23 3 6 18 10 34 8s31 0 34 5 17 7 31 6c25-3 35 10 13 17-13 5-2 28 13 28 6 0 7-5 3-12-5-7-3-8 6-3 10 6 12 4 7-9-4-10-3-15 3-11 14 9 5 51-10 47-7-2-17 3-21 10-8 13 7 38 23 38 7 0 6-5 0-13-9-11-5-13 18-13 16 0 27 3 24 8-6 10 10 11 20 1 4-4 15-8 24-8 10 0 16-7 16-17-1-10 4-14 12-11 17 6 19 23 2 23-6 0-8 3-5 6 4 4 13 1 21-5 13-11 15-9 11 8-2 11 1 23 7 27s5 10-3 15c-11 7-11 9-1 9 7 0 10 5 7 10-4 6-15 8-26 5-24-8-25 3-1 22 9 8 10 11 2 7-8-5-35-9-60-10-34-1-45-5-44-16s-8-15-32-14c-19 0-32 6-30 11 1 6 10 9 18 7 9-1 21 4 27 12 11 13 8 14-16 10-20-3-24-2-13 5 8 5 18 7 24 4 5-4 7 2 3 13-7 18-7 18 7 0 9-10 20-15 27-10 8 4 10 3 5-4-4-7-2-12 3-12 6 0 11 5 11 10v18c0 4-6 7-13 8-21 2-47 16-47 26 0 5 5 6 12 2s8-3 4 4-3 12 3 12c5 0 13-4 16-10 3-5 1-10-5-10s-8-5-4-11c4-8 9-7 15 2 4 7 5 17 2 23-4 5 1 7 10 3 9-3 16-3 16 1-3 18 2 32 12 32 6 0 7-5 2-12-4-7-9-22-10-33-3-16-1-17 9-7 7 7 13 25 14 40 0 18 5 26 15 23 8-2 23-4 34-5 12-1 19-8 19-18-1-9 4-14 11-12 7 3 16 0 21-7 4-7 3-10-4-6-13 9-44-2-37-14 3-4 13-5 23-2 13 4 13 2-3-11-15-12-15-14-4-10 18 6 36-12 24-24-3-3-10 0-15 8-9 13-10 13-10 0s-1-13-10 0c-5 8-12 11-15 8-11-11 6-30 22-24 8 3 11 1 8-4-4-6 1-7 11-3 12 4 15 3 10-6-5-7-16-9-29-5-20 6-21 5-7-11 16-19 25-59 12-51-5 3-9-1-9-9 0-11 4-12 13-4 7 6 19 7 26 3s4 2-6 14c-12 14-14 22-7 22s9 5 5 12-3 8 5 4c8-5 10 0 7 19-3 18-1 25 7 22 7-3 11-11 9-18-3-11-1-12 9-1 7 6 16 12 20 12 11 0 4-35-7-35-5 0-17-5-27-11-16-9-17-12-3-23 13-11 16-11 16-1 0 8 3 10 6 7 9-9 46 12 39 22-2 5 3 15 12 22 15 12 16 12 11-3-4-10-2-15 7-14 25 4 43 27 40 52-1 15 2 23 9 21 6-2 12-10 12-18 1-8 2-18 3-22 0-5 15 3 33 18 34 28 44 63 21 72-22 8-15 21 12 21 20 0 24-5 21-23-3-13 1-22 9-22s11 9 9 24c-3 15-1 22 6 18 13-8 32 4 25 16-4 5-14 5-27-2-11-6-18-7-14-1 3 5-8 8-27 6-17-1-26 0-19 3 6 2 12 9 12 14 0 6-6 7-12 2-7-4-21-9-32-10-15-3-17-1-7 11 7 8 19 12 27 9 9-3 14 0 12 8s3 12 12 10c8-2 34-5 57-5 22-1 39-5 36-9-3-5-12-6-20-3-8 4-11 1-8-5 4-6 13-8 21-5 19 7 13-28-10-53-11-13-14-21-6-26 6-4 9-1 8 7-2 7 4 13 12 13s14-7 12-16c-2-17 45-55 55-45 4 3 13 0 22-7 14-10 14-10 4 4-7 9-11 19-8 23 3 3-1 2-7-4-16-14-31-13-22 2 4 6 3 8-3 5-6-4-16 0-23 8s-9 15-5 15 2 7-5 15c-10 12-10 15 4 15 15 0 21-12 17-33-1-5 3-6 7-3 5 3 8 17 6 31-1 17 2 25 9 22 7-2 12-15 11-29-1-17 4-25 15-24 9 0 16-7 16-16 0-10 6-23 12-29 10-10 12-8 8 9-2 15 0 19 11 15 7-3 12-8 9-12-2-4 9-7 25-7s26 4 23 9 0 7 8 5c8-3 13-11 11-17-1-7 2-10 8-6 8 5 7 12-2 23-7 10-14 19-15 21-2 3-9-4-17-14-7-10-18-15-24-11-17 10-15 29 3 23 8-4 17-1 21 5 5 7 2 8-6 3-9-5-11-4-6 3 4 7 2 10-7 7-7-3-22 3-32 15-10 11-13 20-8 20 6 0 16-7 23-15s16-13 20-10c5 3 11 1 15-5 3-5 11-10 17-10s4 8-5 18c-8 9-16 22-16 27-1 6-16 9-33 8l-31-2 21 22 22 21 23-22c13-12 24-28 25-35 4-44 10-52 40-50 25 1 30-2 29-18-1-22-8-24-26-6-11 10-12 9-6-1 11-20-25-43-47-31-17 9-22 5-19-14 1-5-4-7-11-4-7 2-12 10-10 16 1 7-2 10-8 6-16-10 10-37 28-30 10 4 12 0 8-10-3-10-2-13 5-10 6 4 8 14 5 22-4 9-1 13 6 10 7-2 13-11 13-20 0-8 4-19 9-24 5-4 6-3 2 5-13 21 12 13 28-10 9-12 16-18 16-13s-12 22-27 37-22 28-15 28c6 0 13-4 16-9 7-11 46-8 46 4 0 6-11 9-25 9-13-1-22 3-19 8 3 4 9 6 14 3s12 0 15 5c5 8 13 6 26-6 10-9 16-21 12-27-3-6-1-7 5-3s9 13 5 21c-3 8-1 16 3 16 35 5 58 2 61-7 2-7-6-10-22-9-14 2-23 0-20-5 8-12-28-36-53-34-23 1-23 1 4-27 15-16 30-29 33-29 2 0-6 11-19 25-23 25-15 36 9 13 10-11 12-10 9 1-2 7 3 16 10 18 7 3 11 1 10-4-2-4 2-9 7-10 6-2 11 2 11 7 1 6 2 13 3 17 0 4 7-2 15-12 8-11 12-23 10-27-3-5-7-17-9-29-3-17-2-19 10-9 17 14 38 3 31-16-3-7 0-16 6-20 7-4 8-3 4 4s-2 12 5 12c8 0 8 4-1 15-7 8-8 15-2 15 5 0 15-7 22-15 10-12 10-18-1-32-13-16-12-17 4-4 14 11 20 11 35 0 9-7 6 0-8 15-20 23-21 28-7 23 10-4 16-3 13 2-3 4 3 16 13 25 19 17 19 16 17-23-2-28 2-45 13-54 14-10 14-10 3 4-10 13-9 19 3 29 15 12 21 4 16-23-1-5 3-6 8-2 6 3 8 12 4 20-3 8 0 15 6 15s12-4 12-10c1-5 2-14 3-19 0-5 4-13 9-17 11-12 8-26-5-18-7 5-8 3-3-5 5-9 10-10 18-2 7 7 6 15-3 26-14 17 0 21 16 5 7-7 11-6 11 4 0 8-4 13-8 10-4-2-15 3-24 12-13 13-13 19-3 32 7 9 8 13 2 9-13-8-41 22-40 43 1 9 11 15 28 15 14 0 30 3 34 8 12 11 26 8 18-5-4-6-3-8 3-5 7 5 10-10 9-43-2-27 1-47 6-44s7-6 4-20c-3-16-1-24 5-20 6 3 8 9 5 12-4 3 4 17 16 30 13 14 18 22 12 19-13-8-41 22-40 42 1 8 9 15 19 17 19 2 23-11 7-21-6-4-8-11-4-16 3-5 10-7 15-3 5 3 7 9 4 13-6 10 29 43 41 39 5-2 10 2 11 7 1 6-5 9-13 7-10-2-14 3-12 15 2 11-2 17-11 15-7-1-19 2-25 7-7 6-25 8-40 5-20-3-25-1-20 7 4 7 3 9-4 5s-9 7-7 32c3 41 3 41-62 43-20 1-30 5-26 12 3 6 1 7-5 3-7-4-12-4-13 1 0 4-2 17-4 28-2 10 1 25 7 32s7 14 2 14c-31 4-40 3-51-5-14-9-43 9-43 26 0 7 5 7 13 0s18-7 27-2c13 9 13 10 0 11-8 1-25 1-38 1-12-1-20 2-18 7 5 7-8 11-46 12-16 0-22 10-20 30 1 3-11 6-26 6s-34 2-42 4-14-2-12-8c2-15-14-17-23-3-3 5-12 7-20 3-11-4-14 0-9 13 5 18 5 18-6 2-6-10-16-18-23-18s-6 4 3 10c8 5 12 11 9 14-3 4-9 3-13-1zm-9-25c7-5 17-7 23-3 5 3 13-1 16-9 3-9 11-16 16-16 6 0 7 8 4 17-6 15-4 15 14-2 19-17 26-12 21 18-1 4 7 4 16-1 10-5 23-7 30-5 6 2 17-5 23-17 7-13 18-19 26-16s31-10 54-30c25-23 44-33 52-28 7 5 21 9 32 9 17 2 18 1 2-11-11-8-13-14-6-19 5-3 8-10 6-14-11-17 25-50 52-47 37 4 62-11 59-34-2-11-6-23-10-26-12-12 29-33 56-29 14 3 29 0 33-6 4-7 3-9-3-6-6 4-17-1-24-11-13-15-12-16 4-3 9 7 17 10 17 7 0-4 8-2 18 3 16 8 18 6 17-12-2-26-29-30-63-10-16 10-27 11-36 4-6-5-21-8-31-6-11 2-24 4-29 4-5 1-1 10 8 20 10 11 25 17 34 14 13-4 12-1-3 10-16 13-17 18-7 25 11 7 10 11-3 16-11 4-15 12-10 24 5 14 4 15-6 5s-10-16-2-24c13-13 6-39-9-39-6 0-8 7-5 15 4 8 2 17-4 21-6 3-8 13-4 23 5 12 4 13-6 4-10-10-9-15 1-28 7-8 8-15 3-15-16 0-32 22-26 39 4 14 2 13-10-1-8-10-18-18-22-18s-2 7 5 15c10 12 10 15-1 15s-11 2 1 10c10 7 11 10 3 11-28 3-32 4-40 12s-9 13-12 39c-1 9-4 9-13 0s-5-19 17-42c31-32 25-41-8-12-11 9-17 11-13 5 9-16-6-17-22-1s-15 31 1 22c6-4 9-3 4 1-4 5 0 17 10 27 23 25 4 23-24-4-21-20-22-23-7-39 15-17 15-18-3-16-14 1-19 7-17 24 1 13-5 27-14 32s-13 13-9 18c5 4 15 0 22-10 8-12 15-14 20-8 3 6 1 11-4 11-6 0-10 6-8 13 1 6-6 11-15 9-13-2-16 2-12 15 5 15 4 16-5 3s-11-13-12 0c-1 8-1 19 0 24s-5 6-13 3c-9-4-20 1-26 11-11 15-11 15-6-2 5-14 2-17-9-12-11 4-14 2-9-7s4-9-7 1c-16 15-33 16-23 0 4-6 3-8-3-5-6 4-10-1-9-10 0-9-5-18-12-20-8-3-10 2-6 14 5 14 4 15-4 4-5-8-9-24-7-37 1-13-2-24-7-24s-2-7 6-16c9-8 16-18 16-22 0-21-35 34-36 56 0 19-5 26-16 24-28-5-32 20-7 39 20 15 22 20 11 31s-16 10-28-6c-8-12-14-15-14-7 0 10-3 11-14 2-10-9-17-7-27 6-12 15-12 16 2 11 9-3 21-3 28 1 17 11 44 10 58-1zm-7-13c0-15-57-52-75-49s-20-2-20-35c0-22 3-37 6-35 4 2 6 15 4 29-1 16 2 24 9 22 16-5 15-39-2-59-9-11-10-18-2-23 6-4 14-4 17-1 4 3 1 6-7 6-10 0-10 3 1 17 8 9 14 27 14 41 1 14 6 27 11 29 15 5 12-50-3-68-16-20-15-31 8-55 13-14 17-24 10-29-6-3-11-1-11 5s-3 9-8 6c-4-2-16 2-27 10-13 10-15 14-4 14 9 1 3 10-14 25-16 14-32 23-37 20-10-6-23 12-27 39-3 16-1 17 12 6 8-7 13-16 10-19-2-4 2-8 9-8 14 0 16 54 3 74-11 17 11 27 29 12 8-6 17-9 21-5 3 3 0 6-7 6s-10 3-7 6c4 4 14 1 24-7 14-12 16-12 8 0-6 11-4 13 9 8 10-4 19-1 22 8 6 14 24 21 24 10zm-425-20c28-1 56 2 63 8 9 7 18 6 30-7 16-16 16-17-3-10-16 6-18 5-9-7 12-16 12-29 1-47-9-13-27-7-27 9 0 6 4 8 8 5 4-2 8 9 7 25 0 27-1 28-14 12-10-14-14-15-18-4-5 11-7 11-15 0-8-12-10-12-15 0-5 11-7 11-14 0-8-12-10-12-18-1-7 11-9 11-14-1-8-21-77-19-70 3 4 13 4 13-7 0-9-12-12-13-17-1-5 11-7 11-14 0-8-12-10-12-18-1-7 11-9 11-14-1-3-8 0-20 6-26 9-9 6-17-13-32-15-11-18-17-7-13 19 7 24-12 5-19-10-4-10-6-1-6 7-1 17 8 23 19s16 20 23 20c8 0 7-4-3-10-8-5-11-12-7-16s13 1 21 11c14 20 38 13 30-10-6-14 29-39 40-28 3 3 6 1 6-6s5-9 10-6c6 3 10 1 10-5 0-7-7-10-17-6-17 6-17 5-1-7 16-13 16-15 0-32-17-19-17-19 6-1 12 11 24 17 27 14s-1-11-10-18c-11-9-12-17-3-34 10-20 9-20-15 3-20 18-24 28-17 41s2 24-20 45c-15 15-32 25-37 22s-15-2-23 3-22 2-37-7c-21-14-27-11-24 10 1 9-13 9-22 0-4-3 0-15 10-25 16-18 9-24-21-19-16 3-47-32-35-39 7-5 3-15-12-29-12-11-19-21-14-21 4 0 0-9-10-20s-22-17-26-14c-12 7-12 25 0 21 5-1 8 1 8 5-1 3 8 17 21 30 12 14 19 28 15 32s-2 11 6 15c10 6 9 10-4 14-9 4-14 3-11-2s-1-15-10-22c-14-11-15-10-12 7 2 14-2 18-15 16-9-2-20 4-23 12-3 9-11 13-18 9-7-5-7-2 1 8s27 15 57 13c33-2 49 3 62 17 9 10 21 16 26 13 10-7 48 24 48 38 0 5-4 7-9 3-5-3-12-1-15 4-4 5-1 13 5 16 5 4 8 12 6 19-4 9 8 12 39 10 24-1 46 1 49 5 2 5 17 6 32 4 16-2 51-6 78-8zm129-27c-5-7-10-22-11-33-2-16-1-17 6-5 5 8 8 17 6 20s13 5 33 4 37-3 37-4c0-10 54-4 72 7 13 9 23 14 24 12 11-53 10-53-11-34-18 16-20 16-26 1-5-12-10-14-19-6s-15 7-19-2c-5-10-7-10-12 0-3 6-10 9-15 6-6-3-16-1-23 5-11 9-21 5-45-20-32-31-33-52-3-47 11 2 16-4 16-19 0-13-4-22-9-20-6 1-9 8-7 15 4 17-15 15-22-3-3-9 1-18 9-22 13-4 13-8 3-22-12-15-11-15 7 0 33 26 41 28 41 11 0-10-13-28-28-40-17-14-26-18-22-9 3 8 1 18-5 21-6 4-7 14-4 24 6 16 5 16-14-1-11-9-19-27-18-40 3-34-15-51-30-30-11 15-15 16-31 3-10-8-15-10-11-4s-2 19-13 29c-18 17-19 20-4 36 14 16 14 18-3 28-13 8-14 10-3 11 12 0 12 2-1 16-14 13-32 20-61 23-5 1-8 6-8 12 0 8 5 8 15-1 25-21 17 1-10 26-13 12-27 18-31 13-3-5-10-7-15-3-5 3-18 0-27-8-15-12-16-11-3 5 10 13 11 20 2 31s-6 12 16 9c60-9 98-11 108-5 5 3 31 6 57 7 38 0 45-2 33-11-13-10-13-13 4-28 17-16 20-16 35-1 9 9 14 20 11 25-3 4 2 13 10 20s12 17 8 24c-4 8-2 8 7-1 7-7 9-17 4-25zm440-9c-22-25-29-24-31 3-2 18 0 20 7 8 9-13 14-7 11 12 0 4 6 5 15 1 13-5 13-8-2-24zm-40-10c-10-17 19-20 36-4 19 18 45 12 34-7-4-6 0-17 10-23 14-11 13-12-10-12-14 0-22 2-16 6s4 11-4 19c-8 7-14 9-15 5 0-4-2-15-4-24-2-11 4-16 19-16 40-1 49-3 42-10-4-5-26-9-49-9-53-2-51-2-40-16 20-26 11-43-24-44-30-1-32 0-16 12 17 13 17 14-2 8-16-5-17-4-5 5 14 10 7 16-14 12-5-1-4 4 2 12 7 8 9 16 7 19-3 3-8 15-10 27-5 26 45 77 57 58 4-6 5-14 2-18zm-98-19c0-9-7-16-16-16s-16 7-16 16 7 16 16 16 16-7 16-16zm-129-66c0-9-5-10-19-3-10 5-18 12-18 14s8 3 18 2c10 0 19-7 19-13zm123-8c-7-7-13-7-20 0-6 6-3 10 10 10s16-4 10-10zm185 2c6-3 30-5 54-4 28 1 45-2 48-11 4-11 8-11 20-1s14 9 11-8c-2-12 3-19 14-19 9 0 28-11 42-24 15-14 30-20 38-15 7 4 4-2-6-15-11-12-25-20-32-17-17 6-31-14-28-42 2-28-43-67-60-53-6 5-23 8-38 7-19-2-25 1-21 10 6 17 20 18 25 2 3-8 7-6 11 4 3 10-1 22-11 30-11 9-14 10-8 1 4-7 3-13-3-13s-15 9-21 20c-7 12-16 17-27 13-10-4-14-2-9 5 9 15 47 12 68-6 9-8 22-11 28-7 7 4 9-3 5-24-3-16-1-32 3-35s8 7 8 21c-1 15 4 28 11 30 8 3 10-4 7-22-4-22-3-24 10-13 7 7 11 15 7 18-3 3-6 16-6 30-1 19-5 24-20 22-16-3-18-1-8 9 17 18 57 23 47 7-6-9-3-9 9 0 9 8 22 11 29 7s4 0-6 9c-10 8-23 13-27 10-5-3-6 3-2 13 5 14 1 13-20-6-27-24-50-21-40 5 3 9 12 13 22 10 12-5 11-2-3 9-10 8-23 12-27 9-5-3-9 0-9 6s-4 8-10 5c-5-3-10 0-10 7 0 10-2 10-9-1-5-8-8-24-6-37 1-13-3-24-9-24s-4-4 4-9c20-13 34-2 19 15-6 8-10 17-7 19 7 8 32-24 35-44 3-22-29-21-55 2-17 16-49 16-72 2-13-8-42 14-34 26 11 18 13 53 4 64-6 7 1 10 23 10 18-1 37-4 42-7zm-970-29c4-6 13-8 20-5 7 2 12-3 11-12-1-12 5-16 19-14 19 4 19 2-3-18-12-12-19-26-16-32 4-6 3-8-3-5-6 4-16 1-21-6-16-19 14-32 73-32 44 0 50 2 47 19s-2 18 12 7c9-8 16-9 16-4s8 9 19 9c10 0 17-6 14-12-3-8 4-11 19-10 20 2 24-2 23-23 0-23-4-26-30-26-17 1-36 5-44 9-7 5-18 3-24-3-13-13-28-15-26-3 5 30-3 34-26 12-18-17-22-27-15-40s5-22-6-31c-12-10-12-14-2-22 10-6 8-7-4-3-10 3-20 1-23-4s-18-7-33-6c-37 5-36 4-23 20 9 11 8 15-4 20-12 4-13 10-6 23 5 10 9 22 9 28 0 5 5 11 11 13 14 5 4-39-11-51-9-6-8-7 5-3s16 2 11-7c-4-6-3-9 1-4 5 4 17 0 27-10 11-10 18-12 18-4 0 6-6 14-14 17-9 3-12 12-9 21 5 12 3 14-8 8s-11-5-2 5c15 16 34 4 26-17-4-11-3-14 6-9 7 5 10 14 7 22s-1 14 4 14c6 0 1 9-10 20-23 23-38 27-20 5 7-8 9-15 5-15s-13 7-20 16c-10 15-13 15-27 1-11-12-18-13-27-4-6 6-11 7-11 3 0-5 8-15 18-23 16-14 16-14-2-9-13 5-17 2-13-9 4-8 3-17-2-19-7-5-11 8-12 46 0 9-7 19-16 22-14 6-13 10 6 30 17 18 19 26 10 31-7 5-10 4-6-2s-2-18-13-28c-21-19-28-7-8 13 7 7 9 12 5 12s1 9 12 21 17 27 14 35 0 15 6 15c26 3 30 4 37 12 10 10 22 9 29-4zm1069-11c4 3 4-1 0-11-8-21-7-21-30 4-19 22-19 22 2 11 12-6 24-8 28-4zm-1200-92c-3-7 2-16 10-19 21-8 20-23 0-31-12-4-15-2-11 9 4 8 1 17-5 21-7 4-8 3-4-4s2-10-6-9c-7 2-9 2-5-1 5-2 1-12-7-21-15-16-14-19 3-35 12-11 21-14 26-7 3 6 12 11 18 11 7 0 6-4-3-10-12-8-13-10-1-10 11 0 9-6-6-22-11-13-18-30-16-38 4-12 3-13-5-1-13 19-53 20-74 3-11-10-18-11-18-4 0 6 9 16 21 22 24 13 20 35-7 35-11 1-18 7-16 15 11 43 10 55-1 69-8 11-4 10 10-2 22-19 24-32 8-57-8-13-7-13 10 0 17 14 18 13 12-2-4-11 0-21 11-28 15-8 15-11 2-19-12-8-11-10 7-9 14 2 19 7 15 17s-1 13 11 8c9-3 19-3 21 2 5 7-9 11-47 12-14 0-16 3-8 13 9 10 7 15-5 20-15 6-15 9 5 30 11 12 18 26 14 30s0 4 10 0c16-6 22 5 18 29-1 5 3 6 8 2 6-3 8-12 5-19zm1230 3c-5-9-53-8-59 1-2 4 11 7 29 6 19 0 32-4 30-7zm65-15c-9-11-8-14 2-14 9 0 10-3 2-11-16-16-30-4-27 23 1 13 3 24 3 25 1 1 8 0 16-3 12-5 13-10 4-20zm-825-12c3-5-1-9-9-9s-12 4-9 9c3 4 7 8 9 8s6-4 9-8zm-679-23c-1-20-35-57-35-38 0 7-8 5-21-7l-22-19 26 50-27-24c-14-14-26-19-26-12s-5 9-12 5-5 2 5 12c10 11 31 19 50 19 23 0 32 5 31 15-1 9 6 16 16 16 9 0 16-8 15-17zm1541-36c-2-2-15-6-29-8-26-5-30 6-13 33 6 11 12 10 27-4 11-9 17-19 15-21zm99-11c-3-3-11 0-18 7-9 10-8 11 6 5 10-3 15-9 12-12zm-1564-29c14-16 24-34 22-40-7-20-24-15-21 5 2 11-3 17-16 17-11 0-21 6-24 14-3 10 0 11 9 5 12-7 12-5 0 9-22 28 2 19 30-10z"/>
<path d="m1616 1274c-15-14-25-28-22-31 3-4 13 2 21 13 13 16 14 16 9 2-8-24 8-23 23 0 20 33 0 42-31 16z"/>
<path d="m1843 1225c0-8 4-12 9-9s6 10 3 15c-9 13-12 11-12-6z"/>
<path d="m1919 1218c-5-9-5-48-1-43 6 6 11 45 5 45-2 0-4-1-4-2z"/>
<path d="m2060 1031c0-7-5-9-12-5-7 5-8 3-3-5 5-9 10-10 18-2 6 6 8 14 4 18-4 3-7 1-7-6z"/>
<path d="m1087 1264c6-17 23-18 23-1 0 8 3 7 10-3 5-8 12-11 16-7 10 10 0 18-29 21-18 2-24-1-20-10z"/>
<path d="m928 1163c-9-10-13-24-10-32 3-9 0-11-8-6-9 6-11 4-5-5 6-10 10-10 20 3 9 12 14 14 23 5s12-9 12 0c0 7-7 15-16 19-12 4-13 7-3 14 8 4 11 10 8 14-3 3-13-3-21-12z"/>
<path d="m826 1139c2-4 15-6 29-6s27 2 29 6c2 3-11 6-29 6s-31-3-29-6z"/>
<path d="m1047 1225c3-8 9-12 14-9 12 7 11 11-5 17-10 4-13 1-9-8z"/>
<path d="m1137 1223c-11-11-17-13-17-5 0 10-3 10-14 0-11-11-11-15 2-24 9-7 23-9 32-6 12 5 13 3 2-10-10-13-10-17 2-21 10-4 13-1 10 7-3 7 1 16 9 19 11 4 14-3 13-31-2-20 2-43 8-51 7-9 6-16-5-25-14-10-14-13 3-31 16-16 18-17 13-2-10 23 7 22 23-3 7-11 17-20 24-20s3 7-8 15c-18 14-18 16-2 28 14 11 15 16 5 26-9 10-9 12 3 11 35-5 44 0 25 13-18 14-14 37 8 37 8 0 8-3-2-9-8-5-9-11-3-15 5-3 13 1 16 9 3 9-1 18-10 22-13 5-13 8 3 25 15 16 15 18 1 13-9-4-19-13-22-21-3-7-12-11-21-8-21 8-19 25 3 18 15-5 15-4-1 9-11 9-25 13-33 10-19-7-18 7 2 22 15 11 15 12-4 10-12-1-25-4-28-8-11-11-26-8-19 3 9 15 1 12-18-7zm49-10c0-11 6-18 16-17s14-4 11-11c-4-12 28-38 38-32 2 1-1-3-8-9-9-8-9-14 4-26 14-15 14-16-3-15-12 1-19-5-19-17 0-13-8-20-24-21-21-2-22 0-8 10 13 9 14 14 4 24-6 6-12 31-12 54 0 40-1 42-32 42-17 0-34 4-37 8s-3 5 1 2c3-3 12 0 20 6 10 9 13 8 13-2s5-9 17 4c21 21 21 21 19 0z"/>
<path d="m1200 1160c13-9 13-10 0-10s-13-1 0-10 13-11 0-20c-14-9-3-14 18-7 20 6 1 57-22 57-6 0-4-5 4-10z"/>
<path d="m1235 1050c3-5 8-10 11-10 2 0 4 5 4 10 0 6-5 10-11 10-5 0-7-4-4-10z"/>
<path d="m1698 1208c21-23 22-26 5-39-15-12-16-12-11 2 7 17-8 39-26 39-6 0-4-5 4-10 13-9 13-10 0-10-12 0-12-2-2-9 7-4 14-14 15-22 2-8 6-20 10-26 5-7 5-17 2-23s1-7 9-4c21 8 20 20 0 28-15 6-15 9 3 29 23 25 20 42-10 58-22 12-22 11 1-13z"/>
<path d="m1755 1099c1-30-2-38-12-34-8 3-11 0-8-6 13-20 28-3 30 34 2 20 0 39-4 41-4 3-7-13-6-35z"/>
<path d="m1785 1102c0-28 4-36 20-37s20 5 21 33c1 21-2 29-7 21-4-7-6-16-3-20 2-4-3-12-12-19-13-11-14-9-9 18 3 17 2 33-3 36-4 2-7-12-7-32z"/>
<path d="m800 1100c-8-5-17-7-21-4-4 2-11-1-15-7-4-8-3-9 4-5 19 11 14-5-5-20-17-13-17-14 0-8 23 8 19-27-7-55-20-22-12-30 24-25 14 3 32 5 40 6 11 1 11 3-3 12-15 10-14 14 13 41l29 30-23 22c-15 14-27 19-36 13zm18-63c-16-15-26-32-23-37s0-12-6-16c-8-4-9-3-5 4 10 16-6 15-24 0-8-7-6-2 5 11 11 12 20 33 20 46 1 12 6 30 13 38 12 14 15 14 31-1 16-16 16-18-11-45z"/>
<path d="m795 1070c-4-6 1-7 12-3 17 6 17 5-1-15-22-25-15-30 8-6 9 8 14 20 11 25-8 12-22 12-30-1z"/>
<path d="m958 980c-12-11-18-19-11-20 6 0 14 6 17 13 3 8 8 6 17-7 9-15 13-16 20-5 8 12 11 12 19-1 9-14 10-13 10 15 0 3-3 5-7 6-5 1-15 5-25 10-11 6-23 3-40-11z"/>
<path d="m860 974c0-1 6-7 14-13 10-9 15-8 19 2 3 8-3 13-14 13s-19-1-19-2z"/>
<path d="m865 900c-3-5-2-10 4-10 5 0 13 5 16 10 3 6 2 10-4 10-5 0-13-4-16-10z"/>
<path d="m816 872c-3-5 1-9 9-9s12 4 9 9c-3 4-7 8-9 8s-6-4-9-8z"/>
<path d="m646 953c-6-14-5-15 5-6 7 7 10 15 7 18s-9-2-12-12z"/>
<path d="m455 940c-3-6 1-7 9-4 18 7 21 14 7 14-6 0-13-4-16-10z"/>
<path d="m1275 1321c-3-5-2-12 3-15s9 1 9 9c0 17-3 19-12 6z"/>
<path d="m1375 1281c-3-5-2-12 3-15s9 1 9 9c0 17-3 19-12 6z"/>
<path d="m905 1240c-3-5-3-10 1-10s-3-11-16-25-21-25-19-25c14 0 59 59 51 64-6 4-13 2-17-4z"/>
<path d="m1351 1183c15-25 29-30 29-10 0 8 3 7 10-3 5-8 12-11 17-7 9 10-17 28-29 20-5-2-16 1-25 9-15 12-15 11-2-9z"/>
<path d="m1970 1196c0-2 8-10 18-17 15-13 16-12 3 4s-21 21-21 13z"/>
<path d="m1590 1170c0-5 5-10 10-10 6 0 10 5 10 10 0 6-4 10-10 10-5 0-10-4-10-10z"/>
<path d="m1025 1127c3-26-23-59-39-50-7 3-6 1 1-7 9-10 16-10 25-2 9 7 19 8 28 1 13-9 13-10 0-8-19 3-50-10-50-21 0-4 11-6 24-5 26 3 68 39 58 49-10 11-11 36-1 36 6 0 7 5 4 11-5 6-12 4-20-8-7-10-17-15-21-10-4 4-2 7 4 7 16 0 15 17-1 23-9 3-13-2-12-16zm31-36c0-11-5-17-13-14-17 6-17 20 0 26l12 6c1 1 1-7 1-18z"/>
<path d="m2225 999c-3-4 0-11 6-14 5-4 8-13 5-21-3-7-1-16 4-19 4-3 7 6 6 20-3 21 0 24 26 21 15-2 30 0 33 4 2 3-1 7-8 8-7 0-24 3-40 5-15 2-30 1-32-4z"/>
<path d="m2348 980c18-17 21-24 11-31-7-4-17-5-22-2s-3 9 4 14c9 5 3 7-15 5s-30-9-32-20c-1-9 2-13 9-9 6 4 8 0 4-10-3-9-1-19 5-23 7-4 8-3 4 4s-3 12 2 12c17 0 22-13 10-29-10-12-8-12 8 2 21 18 36 22 32 10-2-5 1-8 7-8 5 0 10 5 11 12 1 6-8 10-22 8-13-1-31 6-40 16-10 11-12 19-6 19s14-5 17-10c4-7 12-7 24 0 10 5 21 7 25 5 3-3 2 1-4 7-14 16-13 31 2 22 7-5 8-3 4 5-5 7-10 10-13 7s-15 0-27 6c-19 10-19 9 2-12z"/>
<path d="m2437 978c19-21 31-25 14-5-6 8-9 16-6 19 3 2-2 5-10 5-13 0-13-3 2-19z"/>
<path d="m2503 985c0-8 4-12 9-9s6 10 3 15c-9 13-12 11-12-6z"/>
<path d="m2025 971c-3-5-2-12 3-15s9 1 9 9c0 17-3 19-12 6z"/>
<path d="m2169 978c-4-10-5-67-1-63 6 6 11 65 5 65-2 0-4-1-4-2z"/>
<path d="m2210 969c0-5-4-7-10-4-14 9-12-1 3-13 10-8 13-6 14 9 1 10 0 19-3 19-2 0-4-5-4-11z"/>
<path d="m2069 968c-6-17-3-66 3-62 5 3 6 9 3 14-3 4 1 11 7 14 11 5 11 7 0 12-6 3-10 10-6 15 3 5 3 9 0 9s-6-1-7-2z"/>
<path d="m2265 961c-3-5-2-12 3-15s9 1 9 9c0 17-3 19-12 6z"/>
<path d="m2403 945c0-8 4-12 9-9s6 10 3 15c-9 13-12 11-12-6z"/>
<path d="m1784 934c1-8 4-15 7-16 2-2 3-1 2 1-2 2 2 9 7 16 7 8 5 12-4 12-8 0-13-6-12-13z"/>
<path d="m2196 921c-4-5-2-12 3-15 5-4 12-2 15 3 4 5 2 12-3 15-5 4-12 2-15-3z"/>
<path d="m2233 915c0-8 4-12 9-9s6 10 3 15c-9 13-12 11-12-6z"/>
<path d="m2264 913c2-9 11-17 20-19 17-2 17-2 0 17-21 23-23 23-20 2z"/>
<path d="m955 900c6-30 16-40 12-12-2 12-6 24-10 28-3 4-4-4-2-16z"/>
<path d="m983 905c0-6 6-12 12-12s12 6 12 12-6 12-12 12-12-6-12-12z"/>
<path d="m2405 911c-3-5-2-12 3-15s9 1 9 9c0 17-3 19-12 6z"/>
<path d="m2147 888c-9-26-6-32 15-32 15 0 22 7 24 24 3 21 2 22-7 8-12-22-31-24-23-3 4 8 4 15 1 15s-7-6-10-12z"/>
<path d="m2205 880c-7-11-8-11 23-14 13-2 26 2 29 8s3 8-2 4c-4-4-16-3-26 2-12 7-20 7-24 0z"/>
<path d="m2259 853-24-28 28 24c25 23 32 31 24 31-2 0-14-12-28-27z"/>
<path d="m2335 870c-7-11-8-11 23-14 12-2 28 4 34 13 10 13 10 14-2 4-9-8-19-9-31-3-11 7-20 7-24 0z"/>
<path d="m2076 841c-3-4 4-7 14-6 27 2 33 10 10 12-11 1-22-2-24-6z"/>
<path d="m2203 835c0-8 4-12 9-9s6 10 3 15c-9 13-12 11-12-6z"/>
<path d="m746 832c-3-5 1-9 9-9s12 4 9 9c-3 4-7 8-9 8s-6-4-9-8z"/>
<path fill="#000" d="m2129 673c-19-5-52-70-39-78 11-7 47 31 56 58 7 22 5 25-17 20z"/>
<path fill="#000" d="m716 639c-31-37-33-49-6-49 13 0 25 12 35 36 18 43 18 44 6 44-5 0-21-14-35-31z"/>
<path fill="#000" d="m1027 664c-16-16-6-35 16-32 12 2 22 10 22 18 0 16-26 25-38 14z"/>
<path fill="#000" d="m1105 648c-43-193-42-188-16-188 16 0 23 15 40 89 12 49 21 96 21 105 0 25-39 20-45-6z"/>
<path fill="#000" d="m1255 658c-2-7-12-48-20-91-19-92-13-107 45-107 52 0 100 44 100 93 0 43-20 61-60 53-31-6-31-5-24 29 6 31 4 35-15 35-12 0-24-6-26-12zm70-137c-10-21-22-31-33-29-25 5-26 44-2 68 20 20 24 20 37 7s13-18-2-46z"/>
<path fill="#000" d="m794 626c-28-28-34-41-34-78 0-59 29-88 87-88 95 0 154 115 95 183-10 12-30 17-65 17-42 0-54-5-83-34zm110-12c20-19 20-35 2-79-10-22-24-37-40-41-37-9-56 11-56 57 0 62 57 101 94 63z"/>
<path fill="#000" d="m1995 612c-3-4-22-6-42-7-36 0-37-1-49-55-18-74-17-80 6-80 13 0 22 9 26 28 11 45 34 82 50 82 14 0 15-9 9-55-6-51-5-55 14-55 16 0 22 11 32 54 6 30 9 61 6 69-6 15-42 29-52 19z"/>
<path fill="#000" d="m1013 598c-6-7-14-31-17-53-4-22-10-51-13-63-5-20-2-23 18-20 20 2 26 12 36 53 6 28 12 60 12 73 1 24-20 30-36 10z"/>
<path fill="#000" d="m1461 597c-35-17-65-71-57-102 7-28 45-42 72-27 12 7 23 6 35-1 10-6 21-8 25-5 9 9 32 137 26 143-10 10-77 5-101-8zm49-41c0-30-33-72-48-62-18 11-14 44 8 66 27 27 40 25 40-4z"/>
<path fill="#000" d="m1600 553c-17-86-17-88 4-88 14 0 22 10 29 35 10 39 33 70 52 70 7 0 15 9 18 20 6 23-21 28-41 8-9-9-12-9-12 0 0 7-9 12-19 12-16 0-22-11-31-57z"/>
<path fill="#000" d="m1739 581c-17-17-29-40-29-55 0-31 32-66 60-66 29 0 78 27 90 49 43 81-54 139-121 72zm81-30c0-31-25-64-44-58-16 5-20 55-5 73 6 8 20 14 30 14 14 0 19-7 19-29z"/>
</g>
</svg>
