<?xml version="1.0" encoding="UTF-8"?>
<!DOCTYPE svg  PUBLIC '-//W3C//DTD SVG 20010904//EN'  'http://www.w3.org/TR/2001/REC-SVG-20010904/DTD/svg10.dtd'>
<svg width="220pt" height="152pt" version="1.0" viewBox="0 0 304 184" xmlns="http://www.w3.org/2000/svg">
<g transform="translate(0 184) scale(.1 -.1)">
<path fill="#993e1f" d="m810 1440c-102-13-202-81-254-172-31-54-85-257-78-293l4-25h1055 1056l-7 83c-9 101-27 164-66 234-40 70-80 107-160 146l-65 32-344 1c-356 0-371-1-371-41 0-8-8-16-19-20-19-6-51 3-51 14 0 4-9 16-19 28-18 19-30 20-323 20-166 0-328-3-358-7z"/>
<path fill="#993e1f" d="m2279 753c-10-3-22-34-37-101-27-121-27-122 2-122 20 0 25 6 31 40 8 49 40 92 54 71 5-7 5-29 0-50-13-54-11-61 14-61 20 0 25 8 35 51 16 67 15 84-4 100-12 10-22 10-45 2l-29-11 6 38c6 39 0 49-27 43z"/>
<path fill="#993e1f" d="m585 710c-31-49-31-50-2-50 19 0 28 9 39 39 15 38 14 51-4 51-4 0-19-18-33-40z"/>
<path fill="#993e1f" d="m2442 723c-5-16-13-36-17-45-14-34 24-19 50 19 31 47 31 53 1 53-17 0-27-8-34-27z"/>
<path fill="#993e1f" d="m665 717c-29-112-40-187-31-190 25-8 43 7 52 41 12 49 35 48 50-3 8-29 17-41 32-43 19-3 22 1 21 30 0 18-4 42-8 52-5 13 0 26 16 42 48 48 13 94-72 94-49 0-55-2-60-23zm92-33c6-17-12-34-38-34-12 0-15 7-11 25 5 29 39 35 49 9z"/>
<path d="m1614 729c-7-13-44-175-44-197s124-10 150 13c22 20 26 65 9 82-8 8-5 17 10 32 26 26 26 36 1 61-22 22-113 29-126 9zm84-46c-4-22-48-31-48-10 0 19 10 27 32 27 13 0 18-6 16-17zm-8-80c9-9-18-38-39-41-16-3-21 2-21 21 0 13 3 27 7 30 6 7 42 0 53-10z"/>
<path d="m1203 713c-7-2-13-11-13-18s-7-15-15-19c-17-6-20-32-5-38 6-2 5-19-1-47-12-52 0-71 42-71 22 0 29 5 29 20 0 11-4 20-10 20-11 0-13 39-4 64 3 9 15 16 25 16 12 0 19 7 19 20 0 11-7 20-15 20-9 0-15 7-13 17 3 18-17 26-39 16z"/>
<path d="m2145 683c-29-7-55-33-55-54 0-10 11-26 25-35 33-22 32-34-4-34-34 0-50-18-30-31 33-22 119 13 119 48 0 7-11 23-25 35-31 27-32 38-1 38 29 0 44 19 25 31-15 9-22 10-54 2z"/>
<path d="m841 643c-14-50-14-96 1-111s50-16 65-1c8 8 13 8 17 0 14-22 45-12 51 17 4 15 10 46 16 69 13 59 12 63-15 63-19 0-26-7-31-32-11-49-34-88-52-88-12 0-14 7-9 30 3 17 9 44 12 60 6 27 4 30-19 30-22 0-28-7-36-37z"/>
<path d="m1040 660c-26-26-25-36 5-64 32-30 32-36-6-36-44 0-36-34 9-38 70-7 114 64 57 90-31 14-27 33 6 33 15 0 25 7 27 18 5 26-71 24-98-3z"/>
<path d="m1296 618c18-87 17-97-11-110-18-8-25-18-23-32 4-26 34-23 66 7 23 22 112 171 112 188 0 5-11 9-24 9-18 0-28-10-44-47l-20-47-7 47c-7 43-10 47-35 47h-28l14-62z"/>
<path d="m1781 626c-19-94-19-101 9-101 20 0 25 6 32 39 9 43 33 76 55 76 7 0 13 8 13 19 0 16-8 19-50 19h-49l-10-52z"/>
<path d="m1915 670c-3-5-8-38-12-74-6-63-5-65 20-71 14-4 34-2 45 4 13 7 22 7 30-1 20-20 38 0 51 58 7 33 15 67 18 77 4 15 0 18-23 15-24-3-29-10-40-52-12-45-26-65-48-66-8 0 0 77 11 106 6 16-42 20-52 4z"/>
</g>
</svg>
