<?xml version="1.0" encoding="UTF-8"?>
<!DOCTYPE svg  PUBLIC '-//W3C//DTD SVG 20010904//EN'  'http://www.w3.org/TR/2001/REC-SVG-20010904/DTD/svg10.dtd'>
<svg width="220px" height="152px" version="1.0" viewBox="0 0 310 172" xmlns="http://www.w3.org/2000/svg">
<g transform="translate(0 172) scale(.1 -.1)">
<path d="m1177 1399c-141-15-237-64-402-204-127-108-190-145-243-145-63 0-124 32-180 96-26 30-51 54-56 54-19 0 4-94 41-173 74-153 200-245 347-255 85-5 220 17 331 54 84 28 275 120 410 198 113 65 130 64 276-24 321-193 596-268 779-214 106 31 209 127 265 247 37 77 56 167 36 167-6 0-11-3-11-7-1-14-64-79-108-111-58-41-114-49-172-24-25 11-99 66-165 123-219 187-276 213-470 214-142 0-208-17-269-70-36-31-47-31-75-1-30 32-108 65-168 72-26 3-59 6-73 8-14 1-56-1-93-5z"/>
<path d="m281 550c-10-7-51-67-51-74 0-3 9-6 21-6 14 0 25 12 36 38 12 26 18 32 21 20 2-10 14-21 28-24 28-7 28-15 9-104-19-85-19-82 12-78 28 3 38 28 57 140 6 33 10 37 39 40 24 2 33 8 35 25 3 21 0 22-98 25-56 2-105 1-109-2z"/>
<path d="m927 553c-2-5-7-20-11-35-5-21-13-27-46-33-53-9-90-52-90-106 0-47 32-75 71-61 13 5 36 6 51 1 16-4 28-7 28-6s11 55 24 119c12 65 20 120 18 123-8 8-40 6-45-2zm-32-135c-9-41-28-63-50-54-28 11 8 86 42 86 11 0 13-8 8-32z"/>
<path d="m1920 550c-14-9-63-217-54-231 9-16 42-10 48 9 5 19 46 209 46 216 0 9-28 14-40 6z"/>
<path d="m1014 535c-10-24 12-42 34-29 24 16 21 38-6 42-13 2-25-3-28-13z"/>
<path d="m1234 535c-4-9-2-21 4-27 15-15 44-1 40 19-4 23-36 29-44 8z"/>
<path d="m2786 509c-28-68 4-68 42 0l23 41h-24c-20 0-28-9-41-41z"/>
<path d="m2095 520c-64-42-85-131-41-175 31-31 67-40 118-29 40 9 42 11 54 64 13 59 9 68-29 64-12-1-28-3-34-3-18-1-16-41 1-41 9 0 12-7 9-20-6-23-51-28-71-8-24 24-9 87 27 115 9 7 37 13 64 13 40 0 47 3 47 20 0 18-7 20-57 20-41 0-67-6-88-20z"/>
<path d="m1103 503c-4-10-13-24-20-31-15-16-17-32-4-32 6 0 7-24 4-56-6-60 2-74 43-74 28 0 40 31 19 47-24 17-11 71 21 83 26 10 33 40 9 40-8 0-15 9-15 20 0 26-48 28-57 3z"/>
<path d="m2657 491c-29-31-34-47-16-53 7-2 7-18-2-52-11-44-10-50 6-62 39-29 84-3 55 31-19 23-4 85 20 85s28 35 5 44c-8 3-12 12-9 21 11 26-29 17-59-14z"/>
<path d="m484 479c-9-16-32-148-25-154 2-3 15-5 28-5 16 0 23 6 23 20 0 35 29 92 50 97 19 5 37 39 26 50-3 4-17 1-31-5-15-7-27-8-30-2-8 14-32 12-41-1z"/>
<path d="m655 476c-52-23-81-74-69-122 7-26 42-44 69-34 11 4 34 5 51 3l31-5 12 77c11 64 11 79-1 86-19 12-58 10-93-5zm41-58c-7-38-29-63-45-54-17 11-13 30 10 60 28 36 43 33 35-6z"/>
<path d="m986 411c-21-92-21-93 12-89 24 3 28 9 38 58 6 30 14 65 18 78 7 19 4 22-23 22-28 0-30-3-45-69z"/>
<path d="m1199 401c-14-74-14-80 2-84 27-7 36 5 49 68 6 33 14 68 16 78 4 13-1 17-23 17-28 0-30-2-44-79z"/>
<path d="m1327 469c-21-12-47-61-47-89 0-31 44-70 79-70 71 0 128 103 82 149-23 23-82 28-114 10zm70-66c-9-53-48-72-55-25-5 31 15 62 40 62 18 0 20-4 15-37z"/>
<path d="m1485 403c-18-78-14-98 21-91 12 2 21 19 30 57 11 49 25 70 48 71 8 0 4-66-6-110-2-9 6-16 19-18 26-4 37 17 48 92 10 64-1 75-79 74h-63l-18-75z"/>
<path d="m1710 451c-16-16-32-41-36-57-14-55 43-106 82-73 11 9 17 10 23 1 3-6 15-10 26-8 15 2 22 16 32 67 19 103 21 99-43 99-48 0-59-4-84-29zm80-20c0-18-21-66-33-73-29-18-38 33-10 64 17 19 43 24 43 9z"/>
<path d="m2289 452c-59-53-33-142 41-142 42 0 60 10 60 32 0 15-5 18-20 13-22-7-60 2-60 14 0 5 19 11 42 14 60 8 86 48 52 81-25 26-79 20-115-12zm71-22c0-5-9-10-21-10-11 0-17 5-14 10 3 6 13 10 21 10s14-4 14-10z"/>
<path d="m2455 466c-2-6-10-41-18-78-13-57-13-68-1-72 26-10 42 5 49 45 8 47 39 89 54 74 7-8 8-22 1-45-16-56-13-70 14-70 21 0 26 7 36 53 7 28 10 63 9 77-4 24-8 25-72 26-44 1-70-2-72-10z"/>
</g>
</svg>
